# xmcd
#
# Track frame offsets:
#  150
#  18538
#  34379
#  53965
#  71954
#  88601
#  103168
#  115431
#  131930
#  148153
#
# Disc length: 2158 seconds
#
# Revision: 0
# Processed by: cddbd v1.5.1PL2 Copyright (c) Steve Scherf et al.
# Submitted via: Collectorz.com_Music_Collector 6.9
#
DISCID=a1086c0a
DTITLE=Rob Heath - Couple Of Times Round The Sun
DYEAR=1900
DGENRE=Country - Singer - Songwriter
TTITLE0=Dear God
TTITLE1=I Wanna Go Again
TTITLE2=Fallen Angel
TTITLE3=Til Death Do Us Part
TTITLE4=What Jenny Draws
TTITLE5=When Big Boys Cry
TTITLE6=The Trick
TTITLE7=Until We Are Ready To See
TTITLE8=I Believe
TTITLE9=Deadly Highway
EXTD=
EXTT0=
EXTT1=
EXTT2=
EXTT3=
EXTT4=
EXTT5=
EXTT6=
EXTT7=
EXTT8=
EXTT9=
PLAYORDER=
